<svg width="422" height="422" viewBox="0 0 422 422" fill="none" xmlns="http://www.w3.org/2000/svg">
<path fill-rule="evenodd" clip-rule="evenodd" d="M412 10H10V412H412V10ZM0 0V422H422V0H0Z" fill="white"/>
<path d="M288.68 327V295.16H288.52L281.08 327H271.8V272.6H280.52V304.44H280.68L288.12 272.6H297.4V327H288.68Z" fill="white"/>
<path d="M258.308 327V295.16H258.148L250.708 327H241.428V272.6H250.148V304.44H250.308L257.748 272.6H267.028V327H258.308Z" fill="white"/>
<path d="M225.346 272.04C229.026 272.04 231.96 273 234.146 274.92C236.333 276.787 237.426 280.013 237.426 284.6V290.84H227.986V284.6C227.986 283.107 227.746 282.04 227.266 281.4C226.84 280.76 226.066 280.44 224.946 280.44H224.546C223.426 280.44 222.626 280.76 222.146 281.4C221.72 282.04 221.506 283.107 221.506 284.6V315C221.506 316.493 221.72 317.56 222.146 318.2C222.626 318.84 223.426 319.16 224.546 319.16H224.946C226.066 319.16 226.84 318.84 227.266 318.2C227.746 317.56 227.986 316.493 227.986 315V308.76H237.426V315C237.426 319.587 236.333 322.84 234.146 324.76C231.96 326.627 229.026 327.56 225.346 327.56H224.146C220.626 327.56 217.693 326.627 215.346 324.76C213.053 322.84 211.906 319.587 211.906 315V284.6C211.906 280.013 213.053 276.787 215.346 274.92C217.693 273 220.626 272.04 224.146 272.04H225.346Z" fill="white"/>
<path d="M196.224 272.04C199.904 272.04 202.838 273 205.024 274.92C207.211 276.787 208.304 280.013 208.304 284.6V290.84H198.864V284.6C198.864 283.107 198.624 282.04 198.144 281.4C197.718 280.76 196.944 280.44 195.824 280.44H195.424C194.304 280.44 193.504 280.76 193.024 281.4C192.598 282.04 192.384 283.107 192.384 284.6V315C192.384 316.493 192.598 317.56 193.024 318.2C193.504 318.84 194.304 319.16 195.424 319.16H195.824C196.944 319.16 197.718 318.84 198.144 318.2C198.624 317.56 198.864 316.493 198.864 315V308.76H208.304V315C208.304 319.587 207.211 322.84 205.024 324.76C202.838 326.627 199.904 327.56 196.224 327.56H195.024C191.504 327.56 188.571 326.627 186.224 324.76C183.931 322.84 182.784 319.587 182.784 315V284.6C182.784 280.013 183.931 276.787 186.224 274.92C188.571 273 191.504 272.04 195.024 272.04H196.224Z" fill="white"/>
<path d="M152.413 314.44V285.16C152.413 280.467 153.613 277.107 156.013 275.08C158.466 273.053 161.399 272.04 164.813 272.04H166.413C169.826 272.04 172.733 273.053 175.133 275.08C177.586 277.107 178.813 280.467 178.813 285.16V314.44C178.813 319.133 177.586 322.493 175.133 324.52C172.733 326.547 169.826 327.56 166.413 327.56H164.813C161.399 327.56 158.466 326.547 156.013 324.52C153.613 322.493 152.413 319.133 152.413 314.44ZM162.013 314.6C162.013 316.2 162.279 317.373 162.813 318.12C163.346 318.813 164.199 319.16 165.373 319.16H165.853C167.026 319.16 167.879 318.813 168.413 318.12C168.946 317.373 169.213 316.2 169.213 314.6V285C169.213 283.4 168.946 282.253 168.413 281.56C167.879 280.813 167.026 280.44 165.853 280.44H165.373C164.199 280.44 163.346 280.813 162.813 281.56C162.279 282.253 162.013 283.4 162.013 285V314.6Z" fill="white"/>
<path d="M149.428 296.52C149.428 300.733 148.415 303.773 146.388 305.64C144.415 307.506 141.641 308.44 138.068 308.44H134.228V327H124.628V272.6H136.708C141.081 272.6 144.281 273.453 146.308 275.16C148.388 276.813 149.428 279.906 149.428 284.44V296.52ZM139.828 296.6V284.84C139.828 283.4 139.588 282.413 139.108 281.88C138.628 281.293 137.775 281 136.548 281H134.228V300.04H136.628C137.695 300.04 138.495 299.8 139.028 299.32C139.561 298.786 139.828 297.88 139.828 296.6Z" fill="white"/>
<path d="M330.283 259L324.363 233.32H324.203V259H314.603V204.6H324.203V228.92H324.363L330.123 204.6H340.043L332.763 230.6L340.283 259H330.283Z" fill="white"/>
<path d="M283.831 246.44V217.16C283.831 212.467 285.031 209.107 287.431 207.08C289.884 205.053 292.818 204.04 296.231 204.04H297.831C301.244 204.04 304.151 205.053 306.551 207.08C309.004 209.107 310.231 212.467 310.231 217.16V246.44C310.231 251.133 309.004 254.493 306.551 256.52C304.151 258.547 301.244 259.56 297.831 259.56H296.231C292.818 259.56 289.884 258.547 287.431 256.52C285.031 254.493 283.831 251.133 283.831 246.44ZM293.431 246.6C293.431 248.2 293.698 249.373 294.231 250.12C294.764 250.813 295.618 251.16 296.791 251.16H297.271C298.444 251.16 299.298 250.813 299.831 250.12C300.364 249.373 300.631 248.2 300.631 246.6V217C300.631 215.4 300.364 214.253 299.831 213.56C299.298 212.813 298.444 212.44 297.271 212.44H296.791C295.618 212.44 294.764 212.813 294.231 213.56C293.698 214.253 293.431 215.4 293.431 217V246.6Z" fill="white"/>
<path d="M278.651 250.2H282.251V267H273.131V259H257.611V267H248.491V250.2H251.691C252.491 248.386 253.104 245.746 253.531 242.28C253.957 238.76 254.197 234.68 254.251 230.04L254.571 204.6H278.651V250.2ZM263.451 230.2C263.344 235.693 263.104 239.906 262.731 242.84C262.357 245.773 261.904 248.226 261.371 250.2H269.051V213.4H263.771L263.451 230.2Z" fill="white"/>
<path d="M238.613 259L237.733 249.96H231.333L230.453 259H221.253L228.453 204.6H240.853L248.053 259H238.613ZM234.453 219.4L232.213 241.56H236.853L234.613 219.4H234.453Z" fill="white"/>
<path d="M211.338 267V259H177.178V204.6H186.778V250.2H192.218V204.6H201.818V250.2H207.258V204.6H216.858V250.2H220.458V267H211.338Z" fill="white"/>
<path d="M146.406 246.44V217.16C146.406 212.467 147.606 209.107 150.006 207.08C152.46 205.053 155.393 204.04 158.806 204.04H160.406C163.82 204.04 166.726 205.053 169.126 207.08C171.58 209.107 172.806 212.467 172.806 217.16V246.44C172.806 251.133 171.58 254.493 169.126 256.52C166.726 258.547 163.82 259.56 160.406 259.56H158.806C155.393 259.56 152.46 258.547 150.006 256.52C147.606 254.493 146.406 251.133 146.406 246.44ZM156.006 246.6C156.006 248.2 156.273 249.373 156.806 250.12C157.34 250.813 158.193 251.16 159.366 251.16H159.846C161.02 251.16 161.873 250.813 162.406 250.12C162.94 249.373 163.206 248.2 163.206 246.6V217C163.206 215.4 162.94 214.253 162.406 213.56C161.873 212.813 161.02 212.44 159.846 212.44H159.366C158.193 212.44 157.34 212.813 156.806 213.56C156.273 214.253 156.006 215.4 156.006 217V246.6Z" fill="white"/>
<path d="M127.259 213.16L126.699 242.2C126.592 248.226 125.792 252.573 124.299 255.24C122.805 257.906 119.712 259.24 115.019 259.24H113.019V250.04H113.499C115.152 250.04 116.245 249.453 116.779 248.28C117.312 247.053 117.605 244.6 117.659 240.92L118.299 204.6H141.979V259H132.379V213.16H127.259Z" fill="white"/>
<path d="M110.651 259H101.051V213.4H94.4906V259H84.8906V204.6H110.651V259Z" fill="white"/>
<path d="M339.697 191L335.777 173.4L331.537 191H322.497L330.417 164.04L322.817 136.6H332.337L335.937 153.56L339.937 136.6H348.897L341.217 163.16L349.217 191H339.697Z" fill="white"/>
<path d="M311.405 191V159.16H311.245L303.805 191H294.525V136.6H303.245V168.44H303.405L310.845 136.6H320.125V191H311.405Z" fill="white"/>
<path d="M289.693 191H250.013V136.6H259.613V182.2H265.053V136.6H274.653V182.2H280.093V136.6H289.693V191Z" fill="white"/>
<path d="M219.389 136.6H228.989V158.76C228.989 160.306 229.256 161.426 229.789 162.12C230.376 162.76 231.362 163.08 232.749 163.08H233.069C233.496 163.08 233.976 163.053 234.509 163C235.042 162.893 235.416 162.813 235.629 162.76V136.6H245.229V191H235.629V171.08C235.149 171.133 234.456 171.213 233.549 171.32C232.696 171.426 231.922 171.48 231.229 171.48H230.989C227.042 171.48 224.109 170.6 222.189 168.84C220.322 167.08 219.389 163.906 219.389 159.32V136.6Z" fill="white"/>
<path d="M212.137 177.72C211.497 182.68 210.27 186.173 208.457 188.2C206.697 190.226 203.577 191.24 199.097 191.24H196.217V182.44H197.657C199.577 182.44 200.91 182.173 201.657 181.64C202.457 181.106 203.043 179.8 203.417 177.72H196.537L191.097 136.6H200.697L204.297 171.24H204.457L207.897 136.6H217.337L212.137 177.72Z" fill="white"/>
<path d="M173.55 145.16L172.99 174.2C172.883 180.226 172.083 184.573 170.59 187.24C169.096 189.906 166.003 191.24 161.31 191.24H159.31V182.04H159.79C161.443 182.04 162.536 181.453 163.07 180.28C163.603 179.053 163.896 176.6 163.95 172.92L164.59 136.6H188.27V191H178.67V145.16H173.55Z" fill="white"/>
<path d="M136.557 136.04H137.837C141.411 136.04 144.344 137.027 146.637 139C148.984 140.92 150.157 144.2 150.157 148.84V178.76C150.157 183.4 148.984 186.707 146.637 188.68C144.344 190.6 141.411 191.56 137.837 191.56H136.557C132.984 191.56 130.024 190.6 127.677 188.68C125.384 186.707 124.237 183.4 124.237 178.76V148.84C124.237 144.2 125.384 140.92 127.677 139C130.024 137.027 132.984 136.04 136.557 136.04ZM137.037 144.44C135.971 144.44 135.171 144.787 134.637 145.48C134.104 146.12 133.837 147.187 133.837 148.68V178.92C133.837 180.413 134.104 181.507 134.637 182.2C135.171 182.84 135.971 183.16 137.037 183.16H137.357C138.424 183.16 139.224 182.84 139.757 182.2C140.291 181.507 140.557 180.413 140.557 178.92V148.68C140.557 147.187 140.291 146.12 139.757 145.48C139.224 144.787 138.424 144.44 137.357 144.44H137.037Z" fill="white"/>
<path d="M106.654 136.04H107.934C111.508 136.04 114.441 137.027 116.734 139C119.081 140.92 120.254 144.2 120.254 148.84V178.76C120.254 183.4 119.081 186.707 116.734 188.68C114.441 190.6 111.508 191.56 107.934 191.56H106.654C103.081 191.56 100.121 190.6 97.7745 188.68C95.4811 186.707 94.3345 183.4 94.3345 178.76V148.84C94.3345 144.2 95.4811 140.92 97.7745 139C100.121 137.027 103.081 136.04 106.654 136.04ZM107.134 144.44C106.068 144.44 105.268 144.787 104.734 145.48C104.201 146.12 103.934 147.187 103.934 148.68V178.92C103.934 180.413 104.201 181.507 104.734 182.2C105.268 182.84 106.068 183.16 107.134 183.16H107.454C108.521 183.16 109.321 182.84 109.854 182.2C110.388 181.507 110.654 180.413 110.654 178.92V148.68C110.654 147.187 110.388 146.12 109.854 145.48C109.321 144.787 108.521 144.44 107.454 144.44H107.134Z" fill="white"/>
<path d="M89.9231 191H80.4831V149.24H74.1631V141.32L76.3231 141.24C78.1898 141.186 79.4698 140.866 80.1631 140.28C80.8564 139.64 81.3631 138.413 81.6831 136.6H89.9231V191Z" fill="white"/>
<path fill-rule="evenodd" clip-rule="evenodd" d="M422 98H0V88H422V98Z" fill="white"/>
<g clip-path="url(#clip0_4240_37)">
<path d="M78.0947 29.4033V35.8586H83.909V68.5964H90.8862V35.8586H96.7005V29.4033H78.0947Z" fill="white"/>
<path d="M97.8677 59.5475C97.8677 66.3487 101.88 69 106.88 69H108.043C113.043 69 117.055 66.3487 117.055 59.5475V38.4524C117.055 31.6513 113.043 29 108.043 29H106.88C101.88 29 97.8677 31.6513 97.8677 38.4524V59.5475ZM104.845 59.6628V38.3372C104.845 36.0317 105.542 35.0519 107.287 35.0519H107.636C109.38 35.0519 110.078 36.0317 110.078 38.3372V59.6628C110.078 61.9683 109.38 62.9481 107.636 62.9481H107.287C105.542 62.9481 104.845 61.9683 104.845 59.6628Z" fill="white"/>
<path d="M138.257 46.6368V37.9336C138.257 31.363 135.408 29.4033 129.012 29.4033H120.232V68.5964H127.209V55.2246H130C135.233 55.2246 138.257 52.7462 138.257 46.6368ZM131.28 46.6943C131.28 48.5388 130.524 49.1727 128.954 49.1727H127.209V35.4552H128.896C130.698 35.4552 131.28 36.1468 131.28 38.2218V46.6943Z" fill="white"/>
<path d="M224.822 68.5964H231.683L226.45 29.4033H217.438L212.205 68.5964H218.891L219.531 62.0835H224.183L224.822 68.5964ZM221.799 40.0661H221.915L223.543 56.0316H220.17L221.799 40.0661Z" fill="white"/>
<path d="M249.828 68.5964H258.782L262.852 29.4033H256.515L254.131 57.4724H254.014L250.584 29.4033H243.607L240.176 57.4724H240.06L237.676 29.4033H230.931L235.001 68.5964H244.13L246.921 41.6224H247.037L249.828 68.5964Z" fill="white"/>
<path d="M274.705 68.5964H281.565L276.332 29.4033H267.321L262.088 68.5964H268.775L269.414 62.0835H274.065L274.705 68.5964ZM271.682 40.0661H271.798L273.425 56.0316H270.053L271.682 40.0661Z" fill="white"/>
<path d="M290.605 52.9191H291.652C293.105 52.9191 293.803 53.4956 293.977 55.3399L295.198 68.5964H302.292L300.897 54.8789C300.547 51.8817 299.791 50.4984 297.989 49.9221C300.431 49.1152 301.652 47.0978 301.652 43.6973V37.703C301.652 32.2275 299.675 29.4033 292.989 29.4033H283.628V68.5964H290.605V52.9191ZM294.732 44.216C294.732 46.2909 294.093 46.8674 292.407 46.8674H290.605V35.4552H292.407C294.093 35.4552 294.732 36.0892 294.732 38.1641V44.216Z" fill="white"/>
<path d="M323.572 59.144V38.9134C323.572 32.2852 320.316 29.4033 313.803 29.4033H304.851V68.5964H313.803C320.316 68.5964 323.572 65.4839 323.572 59.144ZM316.595 59.2592C316.595 61.3918 316.014 62.5445 313.803 62.5445H311.828V35.4552H313.803C316.014 35.4552 316.595 36.4927 316.595 38.6829V59.2592Z" fill="white"/>
<path d="M340.766 49.5188L335.185 44.3314C333.499 42.7752 333.033 41.2767 333.033 39.3746V37.4726C333.033 35.8588 333.672 35.0519 335.01 35.0519H335.185C336.522 35.0519 337.103 35.8588 337.103 37.4726V42.5446H343.848V37.4726C343.848 31.9971 341.522 29 335.417 29H334.778C328.672 29 326.231 31.9971 326.231 37.4726V39.6052C326.231 42.7752 326.579 45.9453 329.429 48.4237L334.603 52.977C336.638 54.7637 337.103 56.3199 337.103 58.3948V60.5274C337.103 62.1412 336.406 62.9481 335.069 62.9481H334.894C333.556 62.9481 332.917 62.1412 332.917 60.5274V55.4554H326.172V60.5274C326.172 66.0028 328.556 69 334.661 69H335.301C341.406 69 343.905 66.0028 343.905 60.5274V58.3948C343.905 54.6484 343.266 51.8819 340.766 49.5188Z" fill="white"/>
<path d="M151.52 48.3292H141.886V38.6862L151.52 29.0502V48.3292ZM170.784 57.9741C168.879 57.9745 167.016 57.4091 165.431 56.3497C163.847 55.2902 162.612 53.7841 161.882 52.022C161.153 50.2599 160.962 48.321 161.333 46.4502C161.705 44.5794 162.623 42.861 163.97 41.5124C165.318 40.1636 167.034 39.2452 168.903 38.8732C170.772 38.5011 172.71 38.6923 174.47 39.4223C176.231 40.1524 177.735 41.3887 178.794 42.9747C179.852 44.5608 180.417 46.4255 180.417 48.3328H190.049C190.049 44.5191 188.919 40.791 186.802 37.62C184.685 34.449 181.677 31.9775 178.157 30.518C174.636 29.0586 170.763 28.6767 167.026 29.4207C163.289 30.1648 159.856 32.0012 157.162 34.698C154.468 37.3947 152.633 40.8305 151.89 44.571C151.147 48.3114 151.528 52.1884 152.986 55.7119C154.444 59.2353 156.913 62.2469 160.082 64.3657C163.25 66.4844 166.974 67.6153 170.784 67.6153V57.9741ZM190.316 38.6862C192.222 38.6858 194.085 39.2511 195.669 40.3105C197.254 41.3699 198.489 42.8758 199.218 44.6377C199.948 46.3998 200.139 48.3388 199.767 50.2094C199.396 52.0801 198.478 53.7985 197.131 55.1473C195.784 56.4961 194.067 57.4147 192.198 57.7868C190.329 58.1591 188.392 57.9683 186.632 57.2385C184.871 56.5086 183.366 55.2727 182.308 53.6868C181.249 52.101 180.684 50.2365 180.684 48.3292H171.052C171.052 52.1429 172.182 55.8708 174.299 59.0416C176.416 62.2123 179.425 64.6836 182.945 66.1427C186.465 67.6019 190.339 67.9835 194.076 67.2393C197.812 66.4951 201.245 64.6584 203.939 61.9617C206.633 59.2649 208.467 55.8291 209.21 52.0886C209.953 48.3482 209.573 44.4713 208.114 40.9479C206.656 37.4246 204.186 34.4132 201.019 32.2945C197.851 30.1758 194.126 29.0449 190.316 29.0449V38.6862Z" fill="white"/>
</g>
<path d="M245.569 351.152V380.384H239.917V377.144H241.969V354.392H239.917V351.152H245.569Z" fill="white"/>
<path d="M234.267 368.181H235.599V371.961H234.267V377.001H230.199V371.961H223.251V368.433L228.759 352.521H234.267V368.181ZM230.199 368.181V358.389H230.127L226.815 368.181H230.199Z" fill="white"/>
<path d="M223.313 373.005V377.001H212.261V374.445C212.261 372.909 212.417 371.661 212.729 370.701C213.065 369.717 213.605 368.781 214.349 367.893L217.301 364.365C218.045 363.453 218.513 362.721 218.705 362.169C218.921 361.593 219.029 360.897 219.029 360.081V357.561C219.029 357.057 218.921 356.685 218.705 356.445C218.513 356.181 218.213 356.049 217.805 356.049H217.697C217.289 356.049 216.989 356.181 216.797 356.445C216.605 356.685 216.509 357.057 216.509 357.561V360.729H212.333V357.885C212.333 356.037 212.777 354.645 213.665 353.709C214.577 352.749 215.873 352.269 217.553 352.269H218.021C219.725 352.269 221.021 352.749 221.909 353.709C222.797 354.645 223.241 356.037 223.241 357.885V359.901C223.241 361.197 223.061 362.301 222.701 363.213C222.365 364.125 221.717 365.169 220.757 366.345L217.769 369.909C217.289 370.485 216.953 370.989 216.761 371.421C216.593 371.853 216.509 372.381 216.509 373.005H223.313Z" fill="white"/>
<path d="M204.169 352.269H204.745C206.353 352.269 207.673 352.713 208.705 353.601C209.761 354.465 210.289 355.941 210.289 358.029V371.493C210.289 373.581 209.761 375.069 208.705 375.957C207.673 376.821 206.353 377.253 204.745 377.253H204.169C202.561 377.253 201.229 376.821 200.173 375.957C199.141 375.069 198.625 373.581 198.625 371.493V358.029C198.625 355.941 199.141 354.465 200.173 353.601C201.229 352.713 202.561 352.269 204.169 352.269ZM204.385 356.049C203.905 356.049 203.545 356.205 203.305 356.517C203.065 356.805 202.945 357.285 202.945 357.957V371.565C202.945 372.237 203.065 372.729 203.305 373.041C203.545 373.329 203.905 373.473 204.385 373.473H204.529C205.009 373.473 205.369 373.329 205.609 373.041C205.849 372.729 205.969 372.237 205.969 371.565V357.957C205.969 357.285 205.849 356.805 205.609 356.517C205.369 356.205 205.009 356.049 204.529 356.049H204.385Z" fill="white"/>
<path d="M196.981 373.005V377.001H185.929V374.445C185.929 372.909 186.085 371.661 186.397 370.701C186.733 369.717 187.273 368.781 188.017 367.893L190.969 364.365C191.713 363.453 192.181 362.721 192.373 362.169C192.589 361.593 192.697 360.897 192.697 360.081V357.561C192.697 357.057 192.589 356.685 192.373 356.445C192.181 356.181 191.881 356.049 191.473 356.049H191.365C190.957 356.049 190.657 356.181 190.465 356.445C190.273 356.685 190.177 357.057 190.177 357.561V360.729H186.001V357.885C186.001 356.037 186.445 354.645 187.333 353.709C188.245 352.749 189.541 352.269 191.221 352.269H191.689C193.393 352.269 194.689 352.749 195.577 353.709C196.465 354.645 196.909 356.037 196.909 357.885V359.901C196.909 361.197 196.729 362.301 196.369 363.213C196.033 364.125 195.385 365.169 194.425 366.345L191.437 369.909C190.957 370.485 190.621 370.989 190.429 371.421C190.261 371.853 190.177 372.381 190.177 373.005H196.981Z" fill="white"/>
<path d="M175.422 351.152H181.074V354.392H179.022V377.144H181.074V380.384H175.422V351.152Z" fill="white"/>
<defs>
<clipPath id="clip0_4240_37">
<rect width="266" height="40" fill="white" transform="translate(78 29)"/>
</clipPath>
</defs>
</svg>
